<?xml version="1.0" encoding="utf-8"?>
<!-- Generator: Adobe Illustrator 24.1.0, SVG Export Plug-In . SVG Version: 6.00 Build 0)  -->
<svg version="1.1" id="Layer_1" xmlns="http://www.w3.org/2000/svg" xmlns:xlink="http://www.w3.org/1999/xlink" x="0px" y="0px"
	 viewBox="0 0 56.69 56.69" style="enable-background:new 0 0 56.69 56.69;" xml:space="preserve">
<style type="text/css">
	.st0{fill:#F75C6C;}
</style>
<g>
	<path class="st0" d="M23.76,27.96c0.63,0,1.16-0.25,1.57-0.72c0.65-0.73,0.93-1.94,0.76-3.22c-0.3-2.29-1.93-4.19-3.64-4.24h-0.07
		c-0.6,0-1.14,0.25-1.55,0.72c-0.64,0.73-0.9,1.87-0.74,3.15c0.3,2.28,1.97,4.26,3.64,4.31H23.76z"/>
	<path class="st0" d="M25.62,34.85c-0.17-0.11-0.34-0.23-0.52-0.35c-0.52-0.16-1.08-0.25-1.65-0.25h-0.07
		c-2.62,0-4.93,1.59-4.93,3.41c0,1.97,1.97,3.52,4.49,3.52c3.32,0,5.01-1.15,5.01-3.4c0-0.22-0.02-0.44-0.08-0.66
		C27.64,36.22,26.84,35.67,25.62,34.85z"/>
	<path class="st0" d="M28.35,5.16c-13.6,0-24.62,11.02-24.62,24.62S14.75,54.4,28.35,54.4c13.6,0,24.62-11.03,24.62-24.62
		S41.94,5.16,28.35,5.16z M26.11,43.18c-0.98,0.28-2.04,0.43-3.15,0.43c-1.24,0-2.43-0.14-3.54-0.42c-2.15-0.54-3.74-1.57-4.48-2.9
		c-0.32-0.57-0.48-1.18-0.48-1.82c0-0.65,0.16-1.31,0.46-1.97c1.18-2.51,4.28-4.2,7.72-4.2c0.03,0,0.07,0,0.1,0
		c-0.28-0.49-0.42-1-0.42-1.54c0-0.27,0.03-0.54,0.1-0.81c-3.61-0.08-6.31-2.73-6.31-6.21c0-2.46,1.97-4.85,4.78-5.82
		c0.84-0.29,1.7-0.44,2.54-0.44h7.71c0.26,0,0.49,0.17,0.58,0.42c0.08,0.25-0.01,0.52-0.22,0.68l-1.73,1.25
		c-0.1,0.07-0.23,0.11-0.36,0.11h-0.62c0.8,0.95,1.27,2.32,1.27,3.85c0,1.69-0.85,3.29-2.41,4.51c-1.2,0.94-1.25,1.19-1.25,1.73
		c0.02,0.3,0.85,1.25,1.77,1.9c2.15,1.52,2.95,3.01,2.95,5.51C31.14,40.04,29.16,42.29,26.11,43.18z M43.53,29.95
		c0,0.33-0.27,0.6-0.61,0.6h-4.38v4.39c0,0.34-0.27,0.61-0.61,0.61h-1.25c-0.34,0-0.61-0.27-0.61-0.61v-4.39h-4.39
		c-0.33,0-0.6-0.27-0.6-0.6V28.7c0-0.33,0.27-0.61,0.6-0.61h4.39v-4.38c0-0.34,0.27-0.61,0.61-0.61h1.25c0.34,0,0.61,0.27,0.61,0.61
		v4.38h4.38c0.33,0,0.61,0.27,0.61,0.61L43.53,29.95L43.53,29.95z"/>
</g>
</svg>
