<?xml version="1.0" encoding="utf-8"?>
<!-- Generator: Adobe Illustrator 24.1.0, SVG Export Plug-In . SVG Version: 6.00 Build 0)  -->
<svg version="1.1" id="Layer_1" xmlns:serif="http://www.serif.com/"
	 xmlns="http://www.w3.org/2000/svg" xmlns:xlink="http://www.w3.org/1999/xlink" x="0px" y="0px" viewBox="0 0 100 100"
	 style="enable-background:new 0 0 100 100;" xml:space="preserve">
<style type="text/css">
	.st0{fill:#FFFFFF;}
</style>
<g>
	<circle class="st0" cx="66.7" cy="33.3" r="3.8"/>
	<path class="st0" d="M50,34c-8.9,0-16,7.2-16,16s7.2,16,16,16s16-7.2,16-16S58.9,34,50,34z M50,60.4c-5.8,0-10.4-4.7-10.4-10.4
		S44.2,39.6,50,39.6S60.4,44.2,60.4,50S55.8,60.4,50,60.4z"/>
	<path class="st0" d="M79.6,29.5c-0.8-2-1.9-3.8-3.6-5.5c-1.7-1.7-3.5-2.8-5.5-3.6c-2-0.8-4.3-1.3-7.6-1.5s-4.4-0.2-12.9-0.2
		s-9.5,0-12.9,0.2s-5.6,0.7-7.6,1.5c-2.1,0.8-3.8,1.9-5.5,3.6c-1.7,1.7-2.8,3.5-3.6,5.5c-0.8,2-1.3,4.3-1.5,7.6
		c-0.2,3.3-0.2,4.4-0.2,12.9s0,9.5,0.2,12.9c0.1,3.3,0.7,5.6,1.5,7.6c0.8,2,1.9,3.8,3.6,5.5c1.7,1.7,3.5,2.8,5.5,3.6
		c2,0.8,4.3,1.3,7.6,1.5c3.3,0.2,4.4,0.2,12.9,0.2s9.5,0,12.9-0.2c3.3-0.1,5.6-0.7,7.6-1.5c2-0.8,3.8-1.9,5.5-3.6
		c1.7-1.7,2.8-3.5,3.6-5.5c0.8-2,1.3-4.3,1.5-7.6c0.2-3.3,0.2-4.4,0.2-12.9c0-8.5,0-9.5-0.2-12.9C80.9,33.8,80.4,31.5,79.6,29.5z
		 M75.4,62.6c-0.1,3-0.7,4.7-1.1,5.8c-0.6,1.5-1.2,2.5-2.3,3.6c-1.1,1.1-2.1,1.8-3.6,2.3c-1.1,0.4-2.8,0.9-5.8,1.1
		c-3.3,0.1-4.3,0.2-12.6,0.2s-9.3,0-12.6-0.2c-3-0.1-4.7-0.7-5.8-1.1c-1.5-0.6-2.5-1.2-3.6-2.3c-1.1-1.1-1.8-2.1-2.3-3.6
		c-0.4-1.1-0.9-2.8-1.1-5.8c-0.2-3.3-0.2-4.3-0.2-12.6s0-9.3,0.2-12.6c0.1-3,0.7-4.7,1.1-5.8c0.6-1.5,1.2-2.5,2.3-3.6
		c1.1-1.1,2.1-1.8,3.6-2.3c1.1-0.4,2.8-0.9,5.8-1.1c3.3-0.2,4.3-0.2,12.6-0.2s9.3,0,12.6,0.2c3,0.1,4.7,0.7,5.8,1.1
		c1.5,0.6,2.5,1.2,3.6,2.3c1.1,1.1,1.8,2.1,2.3,3.6c0.4,1.1,0.9,2.8,1.1,5.8c0.2,3.3,0.2,4.3,0.2,12.6S75.6,59.3,75.4,62.6z"/>
</g>
</svg>
