<?xml version="1.0" encoding="utf-8"?>
<!-- Generator: Adobe Illustrator 24.1.0, SVG Export Plug-In . SVG Version: 6.00 Build 0)  -->
<svg version="1.1" id="Layer_1" xmlns="http://www.w3.org/2000/svg" xmlns:xlink="http://www.w3.org/1999/xlink" x="0px" y="0px"
	 viewBox="0 0 182 38" style="enable-background:new 0 0 182 38;" xml:space="preserve">
<style type="text/css">
	.st0{fill:#F75C6C;}
	.st1{fill:#FFFFFF;}
	.st2{fill:url(#SVGID_1_);}
	.st3{fill:url(#SVGID_2_);}
</style>
<g>
	<path class="st0" d="M40.71,26.96V5.42H50.9c3.14,0,5.48,0.77,7.01,2.31c1.27,1.27,1.91,2.97,1.91,5.11c0,3.16-1.48,5.36-4.43,6.61
		l5.14,7.51h-6.89l-4.34-6.52h-2.62v6.52H40.71z M46.68,15.76h3.94c1,0,1.79-0.23,2.35-0.69c0.56-0.46,0.85-1.1,0.85-1.92
		c0-0.84-0.28-1.48-0.85-1.91c-0.56-0.43-1.36-0.65-2.38-0.65h-3.91V15.76z"/>
	<path class="st0" d="M70.43,27.36c-2.63,0-4.77-0.8-6.43-2.4c-1.66-1.6-2.49-3.7-2.49-6.31c0-2.46,0.79-4.53,2.37-6.2
		c1.58-1.67,3.59-2.51,6.03-2.51c2.73,0,4.81,0.86,6.25,2.58c1.44,1.72,2.15,3.9,2.15,6.52c0,0.53-0.01,0.93-0.03,1.2H67.14
		c0.47,1.83,1.67,2.74,3.6,2.74c1.31,0,2.54-0.56,3.69-1.69l3.23,2.68C75.88,26.23,73.47,27.36,70.43,27.36z M67.05,17.27h5.78
		c-0.1-0.92-0.41-1.66-0.92-2.2c-0.51-0.54-1.17-0.82-1.97-0.82c-0.76,0-1.39,0.27-1.89,0.82C67.55,15.61,67.21,16.35,67.05,17.27z"
		/>
	<path class="st0" d="M79.75,26.96v-3.85l7.69-8.15h-7.41v-4.65H95.2v3.85l-7.72,8.15h7.72v4.65H79.75z"/>
	<path class="st0" d="M97.07,26.96v-3.85l7.69-8.15h-7.41v-4.65h15.17v3.85l-7.72,8.15h7.72v4.65H97.07z"/>
	<path class="st0" d="M115.32,26.96V5.42h5.97v16.31h10.43v5.23H115.32z"/>
	<path class="st0" d="M133.93,8.81V4.5h6.09v4.31H133.93z M134.05,26.96V10.32h5.85v16.64H134.05z"/>
	<path class="st0" d="M143.16,26.96V10.32H149v2.34c1.39-1.8,3.06-2.71,4.98-2.71c1.76,0,3.15,0.55,4.15,1.65
		c1,1.1,1.51,2.59,1.51,4.48v10.89h-5.85v-9.01c0-0.88-0.21-1.57-0.63-2.06c-0.42-0.49-0.99-0.74-1.71-0.74
		c-0.74,0-1.33,0.25-1.78,0.74c-0.45,0.49-0.68,1.18-0.68,2.06v9.01H143.16z"/>
	<path class="st0" d="M162.66,26.96V4.5h5.85v11.38l4.52-5.57h6.61l-5.78,6.68l5.94,9.97h-6.43l-3.35-5.66l-1.51,1.75v3.91H162.66z"
		/>
</g>
<g>
	<g>
		<ellipse cx="31.38" cy="18.09" rx="1.36" ry="0.1"/>
		<path class="st0" d="M16.78,0.18C8.1,0.18,1.06,7.26,1.06,15.99S8.1,31.8,16.78,31.8c8.68,0,15.71-7.08,15.71-15.81
			S25.45,0.18,16.78,0.18z M20.73,7.41c-0.47,0-0.84-0.38-0.84-0.84c0-0.47,0.38-0.84,0.84-0.84s0.84,0.38,0.84,0.84
			C21.57,7.04,21.19,7.41,20.73,7.41z"/>
		<g>
			<path class="st1" d="M16.85,36.18c-1.9,0-3.7-0.57-5.07-1.59c-1.48-1.11-2.33-2.68-2.33-4.32c0-0.53,0.12-1.42,1.04-3.65
				c0.5-1.22,1.2-2.73,2.07-4.49c1.47-2.97,2.97-5.68,2.99-5.7l1.31-2.37l1.31,2.37c0.01,0.03,1.51,2.73,2.99,5.7
				c0.87,1.76,1.57,3.27,2.07,4.49c0.92,2.23,1.04,3.12,1.04,3.65c0,1.64-0.85,3.21-2.33,4.32C20.55,35.61,18.75,36.18,16.85,36.18z
				 M16.85,20.31c-0.48,0.92-1.05,2.02-1.62,3.15c-2.72,5.47-2.79,6.68-2.79,6.8c0,1.58,2.02,2.92,4.41,2.92
				c2.39,0,4.41-1.34,4.41-2.92c0-0.12-0.08-1.33-2.79-6.8C17.9,22.33,17.33,21.23,16.85,20.31z"/>
		</g>

			<radialGradient id="SVGID_1_" cx="-225.2377" cy="-22.3324" r="31.4639" fx="-224.7494" fy="-21.2716" gradientTransform="matrix(0.4407 0 0 0.4407 116.0267 25.8305)" gradientUnits="userSpaceOnUse">
			<stop  offset="0.0345" style="stop-color:#F94898"/>
			<stop  offset="0.4027" style="stop-color:#F76869"/>
			<stop  offset="0.7291" style="stop-color:#F87A6D"/>
			<stop  offset="0.9882" style="stop-color:#F89C6D"/>
		</radialGradient>
		<ellipse class="st2" cx="16.78" cy="15.99" rx="13.88" ry="13.85"/>
		<path class="st1" d="M16.78,2.14C9.11,2.14,2.9,8.34,2.9,15.99s6.21,13.85,13.88,13.85s13.88-6.2,13.88-13.85
			S24.44,2.14,16.78,2.14z M4.48,14.61c0.11-1.43,0.5-2.76,1.13-4.03c0.22-0.44,0.45-0.86,0.58-1.09c0.76-1.1,1.4-2,2.29-2.67
			C8.96,6.45,9.5,6.22,10.1,6.56c0.22,0.13,0.44,0.32,0.58,0.53c0.96,1.47,1.89,2.95,2.83,4.42c0.65,1.01,1.31,2.01,1.94,3.03
			c0.44,0.72,0.11,1.28-0.76,1.3c-1.19,0.03-2.38,0.05-3.56,0.08c-1.76,0.03-3.52,0.05-5.29,0.11C5.02,16.06,4.41,15.46,4.48,14.61z
			 M15.58,17.7c-0.58,1.04-1.18,2.07-1.77,3.1c-0.88,1.53-1.77,3.05-2.62,4.59c-0.4,0.72-1.22,0.94-1.91,0.45
			c-1.17-0.83-2.11-1.85-2.88-3.04c-0.26-0.41-0.5-0.83-0.64-1.05c-0.55-1.21-0.99-2.23-1.12-3.34c-0.07-0.61,0.01-1.19,0.61-1.52
			c0.23-0.13,0.5-0.22,0.76-0.23c1.75-0.07,3.5-0.11,5.25-0.16c1.2-0.04,2.39-0.09,3.59-0.11C15.69,16.37,16,16.94,15.58,17.7z
			 M15.83,14.13c-0.64-1-1.27-2.01-1.9-3.02c-0.94-1.49-1.86-3-2.82-4.47c-0.45-0.69-0.26-1.52,0.51-1.9
			c1.28-0.64,2.62-0.99,4.04-1.11c0.48-0.04,0.97-0.05,1.23-0.07c1.33,0.08,2.43,0.17,3.47,0.59c0.57,0.23,1.05,0.56,1.06,1.25
			c0.01,0.26-0.04,0.54-0.15,0.77c-0.76,1.58-1.55,3.14-2.33,4.71c-0.53,1.07-1.05,2.16-1.6,3.22
			C16.95,14.86,16.3,14.86,15.83,14.13z M17.91,14.24c0.54-1.06,1.1-2.11,1.66-3.16c0.82-1.56,1.66-3.11,2.46-4.68
			c0.37-0.73,1.18-0.98,1.9-0.51c1.19,0.79,2.17,1.77,2.98,2.94c0.28,0.4,0.53,0.81,0.67,1.03c0.6,1.19,1.07,2.19,1.23,3.3
			c0.09,0.6,0.04,1.19-0.55,1.54c-0.22,0.13-0.49,0.24-0.75,0.25c-1.75,0.13-3.49,0.23-5.24,0.34c-1.2,0.08-2.39,0.17-3.59,0.23
			C17.84,15.57,17.51,15.01,17.91,14.24z M27.96,21.36c-0.22,0.44-0.45,0.86-0.57,1.09c-0.75,1.1-1.39,2-2.28,2.68
			c-0.48,0.37-1.02,0.61-1.62,0.27c-0.22-0.13-0.45-0.32-0.59-0.53c-0.96-1.46-1.9-2.94-2.85-4.41c-0.65-1.01-1.31-2-1.95-3.02
			c-0.45-0.72-0.12-1.28,0.75-1.3c1.19-0.04,2.38-0.06,3.56-0.09c1.76-0.04,3.52-0.06,5.29-0.13c0.82-0.03,1.44,0.56,1.37,1.41
			C28.97,18.75,28.59,20.08,27.96,21.36z"/>
		<g>

				<radialGradient id="SVGID_2_" cx="-225.0939" cy="0.1964" r="19.771" fx="-225.173" fy="-16.1011" gradientTransform="matrix(0.4407 0 0 0.4407 116.0267 25.8305)" gradientUnits="userSpaceOnUse">
				<stop  offset="0.4027" style="stop-color:#F76869"/>
				<stop  offset="0.7291" style="stop-color:#F87A6D"/>
				<stop  offset="0.9882" style="stop-color:#F89C6D"/>
			</radialGradient>
			<path class="st3" d="M22.75,30.27c0,2.44-2.65,4.42-5.91,4.42s-5.91-1.98-5.91-4.42s5.91-13.12,5.91-13.12
				S22.75,27.83,22.75,30.27z"/>
			<path class="st1" d="M12.23,29.64c0.15-0.74,0.4-1.52,0.77-2.27c0.63-1.25,1.25-2.5,1.88-3.75c0.06-0.12,0.09-0.26,0.19-0.33
				c0.1-0.08,0.25-0.09,0.38-0.14c0.03,0.13,0.12,0.29,0.08,0.39c-0.2,0.5-0.42,0.99-0.66,1.47c-0.51,1.02-1.07,2.02-1.55,3.05
				c-0.27,0.59-0.54,1.2-0.47,1.89c0.02,0.19-0.01,0.4-0.23,0.38c-0.13-0.01-0.26-0.2-0.36-0.33
				C12.21,29.94,12.24,29.82,12.23,29.64z"/>
			<path class="st1" d="M12.71,31.49c0.15-0.17,0.23-0.34,0.35-0.38c0.19-0.06,0.26,0.1,0.31,0.28c0.05,0.16,0.2,0.28,0.25,0.44
				c0.04,0.12,0,0.26-0.01,0.4c-0.12-0.01-0.3,0.04-0.37-0.03C13.05,32,12.9,31.76,12.71,31.49z"/>
		</g>
	</g>
</g>
</svg>
