<?xml version="1.0" encoding="utf-8"?>
<!-- Generator: Adobe Illustrator 24.1.0, SVG Export Plug-In . SVG Version: 6.00 Build 0)  -->
<svg version="1.1" id="Layer_1" xmlns="http://www.w3.org/2000/svg" xmlns:xlink="http://www.w3.org/1999/xlink" x="0px" y="0px"
	 viewBox="0 0 32 32" style="enable-background:new 0 0 32 32;" xml:space="preserve">
<style type="text/css">
	.st0{fill:none;stroke:#FFFFFF;stroke-width:2;stroke-linecap:square;stroke-miterlimit:10;}
</style>
<g>
	<path class="st0" d="M20.7,19.3l-2.3,2.9c-3.5-2.1-6.5-5-8.6-8.6l2.9-2.3c0.7-0.6,0.9-1.5,0.6-2.3l-2.6-5.9
		c-0.4-0.9-1.3-1.3-2.3-1.1L3.5,3.3C2.5,3.6,1.9,4.5,2,5.5C3.8,18.2,13.8,28.2,26.5,30c1,0.1,1.9-0.5,2.2-1.4l1.3-4.9
		c0.2-0.9-0.2-1.9-1.1-2.3L23,18.7C22.2,18.4,21.2,18.6,20.7,19.3z"/>
</g>
</svg>
