<?xml version="1.0" encoding="utf-8"?>
<!-- Generator: Adobe Illustrator 24.1.0, SVG Export Plug-In . SVG Version: 6.00 Build 0)  -->
<svg version="1.1" id="Layer_1" xmlns="http://www.w3.org/2000/svg" xmlns:xlink="http://www.w3.org/1999/xlink" x="0px" y="0px"
	 viewBox="0 0 275 59" style="enable-background:new 0 0 275 59;" xml:space="preserve">
<style type="text/css">
	.st0{fill:#C42C42;}
	.st1{fill:#FFFFFF;}
	.st2{fill:url(#SVGID_1_);}
	.st3{fill:url(#SVGID_2_);}
</style>
<g id="HGwR9o_2_">
	<g>
		<g>
			<ellipse cx="46.51" cy="29.03" rx="2.09" ry="0.15"/>
			<path class="st0" d="M24.16,1.63c-13.27,0-24.03,10.83-24.03,24.18S10.89,50,24.16,50C37.44,50,48.2,39.17,48.2,25.81
				S37.44,1.63,24.16,1.63z"/>
			<g>
				<path class="st1" d="M24.27,56.7c-2.91,0-5.66-0.86-7.76-2.43c-2.27-1.69-3.57-4.1-3.57-6.61c0-0.81,0.18-2.17,1.59-5.58
					c0.77-1.87,1.84-4.18,3.17-6.87c2.26-4.54,4.54-8.68,4.57-8.72l2.01-3.62l2.01,3.62c0.02,0.04,2.31,4.18,4.57,8.72
					c1.34,2.69,2.4,5,3.17,6.87c1.4,3.41,1.59,4.77,1.59,5.58c0,2.51-1.3,4.92-3.57,6.61C29.94,55.83,27.18,56.7,24.27,56.7z
					 M24.27,32.43c-0.74,1.4-1.61,3.08-2.47,4.82c-4.15,8.36-4.27,10.21-4.27,10.4c0,2.42,3.09,4.46,6.75,4.46s6.75-2.04,6.75-4.46
					c0-0.18-0.12-2.03-4.27-10.4C25.88,35.51,25.01,33.83,24.27,32.43z"/>
			</g>
			
				<radialGradient id="SVGID_1_" cx="24.16" cy="34.19" r="21.205" fx="24.4891" fy="34.9049" gradientTransform="matrix(1 0 0 -1 0 60)" gradientUnits="userSpaceOnUse">
				<stop  offset="0.0345" style="stop-color:#F94898"/>
				<stop  offset="0.4027" style="stop-color:#F76869"/>
				<stop  offset="0.7291" style="stop-color:#F87A6D"/>
				<stop  offset="0.9882" style="stop-color:#F89C6D"/>
			</radialGradient>
			<ellipse class="st2" cx="24.16" cy="25.81" rx="21.22" ry="21.19"/>
			<path class="st1" d="M24.17,4.62c-11.72,0-21.22,9.49-21.22,21.19S12.44,47,24.17,47s21.22-9.49,21.22-21.19
				S35.89,4.62,24.17,4.62z M5.35,23.71c0.17-2.18,0.77-4.22,1.73-6.17c0.33-0.67,0.7-1.31,0.88-1.66c1.16-1.68,2.14-3.05,3.5-4.09
				c0.74-0.57,1.56-0.93,2.48-0.4c0.34,0.2,0.68,0.48,0.89,0.81c1.46,2.24,2.89,4.51,4.33,6.76c0.99,1.54,2,3.07,2.96,4.63
				c0.68,1.1,0.17,1.95-1.16,1.99c-1.82,0.05-3.63,0.08-5.45,0.12c-2.7,0.05-5.39,0.07-8.09,0.17C6.19,25.91,5.25,25.01,5.35,23.71z
				 M22.33,28.43c-0.89,1.59-1.8,3.16-2.7,4.74c-1.34,2.34-2.71,4.66-4.01,7.02c-0.61,1.1-1.86,1.44-2.93,0.68
				c-1.78-1.27-3.23-2.82-4.4-4.65c-0.4-0.63-0.77-1.27-0.98-1.61c-0.84-1.85-1.51-3.41-1.7-5.11c-0.1-0.93,0.01-1.82,0.93-2.33
				c0.34-0.19,0.76-0.33,1.16-0.35c2.68-0.1,5.35-0.17,8.03-0.25c1.83-0.05,3.66-0.14,5.5-0.16C22.51,26.39,22.98,27.27,22.33,28.43
				z M22.72,22.97c-0.98-1.53-1.94-3.07-2.91-4.61c-1.43-2.28-2.84-4.58-4.31-6.84c-0.69-1.05-0.39-2.32,0.77-2.9
				c1.96-0.98,4.01-1.52,6.18-1.69c0.74-0.06,1.48-0.08,1.88-0.1c2.04,0.13,3.72,0.26,5.31,0.9c0.87,0.34,1.6,0.86,1.62,1.91
				c0.01,0.4-0.07,0.83-0.24,1.18c-1.17,2.41-2.37,4.8-3.56,7.2c-0.81,1.64-1.6,3.3-2.44,4.92C24.43,24.08,23.44,24.09,22.72,22.97z
				 M25.9,23.14c0.83-1.62,1.69-3.22,2.53-4.83c1.26-2.38,2.54-4.75,3.76-7.16c0.57-1.12,1.81-1.5,2.9-0.79
				c1.83,1.21,3.33,2.71,4.56,4.5c0.42,0.61,0.81,1.24,1.03,1.58c0.91,1.83,1.64,3.35,1.89,5.05c0.14,0.92,0.05,1.82-0.84,2.36
				c-0.34,0.2-0.75,0.36-1.14,0.39c-2.67,0.2-5.34,0.35-8.02,0.52c-1.83,0.12-3.66,0.27-5.49,0.35
				C25.79,25.17,25.29,24.32,25.9,23.14z M41.27,34.02c-0.33,0.67-0.69,1.32-0.87,1.67c-1.15,1.68-2.13,3.06-3.49,4.1
				c-0.74,0.57-1.56,0.93-2.47,0.41c-0.34-0.2-0.68-0.48-0.9-0.81c-1.47-2.24-2.91-4.5-4.36-6.75c-0.99-1.54-2.01-3.06-2.98-4.62
				c-0.68-1.1-0.18-1.95,1.15-2c1.82-0.06,3.63-0.09,5.45-0.14c2.7-0.06,5.39-0.09,8.08-0.2c1.26-0.05,2.2,0.85,2.1,2.15
				C42.82,30.03,42.23,32.07,41.27,34.02z"/>
			<g>
				
					<radialGradient id="SVGID_2_" cx="24.26" cy="19.005" r="13.3247" fx="24.2067" fy="8.0213" gradientTransform="matrix(1 0 0 -1 0 60)" gradientUnits="userSpaceOnUse">
					<stop  offset="0.4027" style="stop-color:#F76869"/>
					<stop  offset="0.7291" style="stop-color:#F87A6D"/>
					<stop  offset="0.9882" style="stop-color:#F89C6D"/>
				</radialGradient>
				<path class="st3" d="M33.3,47.65c0,3.73-4.05,6.75-9.04,6.75s-9.04-3.02-9.04-6.75s9.04-20.06,9.04-20.06S33.3,43.92,33.3,47.65
					z"/>
				<path class="st1" d="M17.22,46.69c0.24-1.13,0.61-2.33,1.18-3.47c0.97-1.91,1.92-3.82,2.87-5.73c0.09-0.18,0.14-0.4,0.29-0.51
					c0.15-0.12,0.38-0.14,0.58-0.21c0.05,0.2,0.19,0.44,0.13,0.6c-0.31,0.76-0.65,1.51-1.01,2.25c-0.78,1.56-1.63,3.09-2.37,4.67
					c-0.42,0.9-0.82,1.84-0.73,2.89c0.03,0.29-0.02,0.61-0.35,0.59c-0.2-0.02-0.4-0.31-0.55-0.51
					C17.18,47.15,17.23,46.96,17.22,46.69z"/>
				<path class="st1" d="M17.94,49.52c0.23-0.26,0.35-0.52,0.54-0.58c0.29-0.09,0.39,0.16,0.47,0.43c0.07,0.24,0.3,0.43,0.38,0.67
					c0.06,0.18,0,0.4-0.01,0.61c-0.19-0.01-0.46,0.06-0.56-0.05C18.47,50.31,18.24,49.94,17.94,49.52z"/>
			</g>
		</g>
	</g>
</g>
</svg>
