<?xml version="1.0" encoding="utf-8"?>
<!-- Generator: Adobe Illustrator 24.1.0, SVG Export Plug-In . SVG Version: 6.00 Build 0)  -->
<svg version="1.1" id="Layer_1" xmlns="http://www.w3.org/2000/svg" xmlns:xlink="http://www.w3.org/1999/xlink" x="0px" y="0px"
	 viewBox="0 0 217 59" style="enable-background:new 0 0 217 59;" xml:space="preserve">
<style type="text/css">
	.st0{fill:#F75C6C;}
</style>
<g>
	<path class="st0" d="M2.78,35.18V2.24h15.58c4.8,0,8.38,1.18,10.73,3.53C31.03,7.71,32,10.32,32,13.58c0,4.83-2.26,8.2-6.78,10.12
		l7.86,11.48H22.54l-6.63-9.98h-4v9.98H2.78z M11.91,18.05h6.02c1.54,0,2.74-0.35,3.6-1.06s1.29-1.69,1.29-2.94
		c0-1.29-0.43-2.26-1.29-2.92s-2.08-0.99-3.65-0.99H11.9v7.91H11.91z"/>
	<path class="st0" d="M48.24,35.79c-4.02,0-7.29-1.22-9.84-3.67c-2.54-2.45-3.81-5.66-3.81-9.65c0-3.76,1.21-6.92,3.62-9.48
		c2.42-2.56,5.49-3.84,9.22-3.84c4.17,0,7.36,1.32,9.55,3.95c2.2,2.63,3.29,5.96,3.29,9.98c0,0.82-0.02,1.43-0.05,1.83H43.2
		c0.72,2.79,2.56,4.19,5.51,4.19c2.01,0,3.89-0.86,5.65-2.59l4.94,4.09C56.57,34.06,52.88,35.79,48.24,35.79z M43.06,20.35h8.85
		c-0.16-1.41-0.63-2.53-1.41-3.36c-0.79-0.83-1.79-1.25-3.01-1.25c-1.16,0-2.12,0.42-2.89,1.25C43.82,17.82,43.31,18.94,43.06,20.35
		z"/>
	<path class="st0" d="M62.5,35.18V29.3l11.76-12.47H62.92V9.72h23.2v5.88L74.31,28.07h11.81v7.11H62.5z"/>
	<path class="st0" d="M88.99,35.18V29.3l11.76-12.47H89.41V9.72h23.2v5.88L100.8,28.07h11.81v7.11H88.99z"/>
	<path class="st0" d="M116.89,35.18V2.24h9.13v24.94h15.95v8H116.89z"/>
	<path class="st0" d="M145.36,7.41V0.83h9.32v6.59h-9.32V7.41z M145.55,35.18V9.72h8.94v25.46H145.55z"/>
	<path class="st0" d="M159.48,35.18V9.72h8.94v3.58c2.13-2.76,4.67-4.14,7.62-4.14c2.7,0,4.82,0.84,6.35,2.52
		c1.54,1.68,2.31,3.96,2.31,6.85v16.66h-8.94v-13.8c0-1.35-0.32-2.4-0.96-3.15s-1.51-1.13-2.61-1.13c-1.13,0-2.04,0.38-2.73,1.13
		s-1.04,1.8-1.04,3.15v13.79H159.48z"/>
	<path class="st0" d="M189.32,35.18V0.83h8.94v17.41l6.92-8.52h10.12l-8.85,10.21l9.08,15.25h-9.83l-5.13-8.66l-2.31,2.68v5.98
		H189.32z"/>
	<path class="st0" d="M1.25,53.46H0.26l4.72-10.85h0.85l4.71,10.85H9.57L5.19,43.25h0.43L1.25,53.46z M2.22,50.56l0.3-0.82H8.3
		l0.32,0.82H2.22z"/>
	<path class="st0" d="M17.09,53.46v-5.51c0-0.35-0.01-0.7-0.02-1.06c-0.02-0.36-0.05-0.71-0.1-1.06h0.88L18,47.66l-0.15-0.03
		c0.15-0.65,0.46-1.14,0.94-1.48c0.47-0.34,1-0.5,1.59-0.5c0.13,0,0.25,0.01,0.36,0.02c0.11,0.01,0.21,0.03,0.31,0.05l-0.03,0.85
		c-0.19-0.05-0.43-0.08-0.72-0.08c-0.56,0-1.01,0.13-1.34,0.38c-0.34,0.25-0.58,0.57-0.72,0.95c-0.15,0.38-0.22,0.77-0.22,1.17v4.48
		L17.09,53.46L17.09,53.46z"/>
	<path class="st0" d="M28.88,52.51c-0.32,0.33-0.75,0.58-1.26,0.77c-0.52,0.19-1.05,0.28-1.6,0.28c-0.77,0-1.44-0.16-2-0.47
		s-0.99-0.77-1.29-1.36s-0.46-1.29-0.46-2.12c0-0.79,0.15-1.49,0.45-2.09c0.3-0.6,0.72-1.06,1.26-1.39c0.54-0.33,1.16-0.5,1.86-0.5
		c0.66,0,1.23,0.14,1.71,0.43c0.48,0.29,0.84,0.71,1.1,1.26s0.38,1.21,0.38,2v0.2H23.1l-0.02-0.7h5.44l-0.35,0.59
		c0.03-0.98-0.15-1.72-0.56-2.24c-0.4-0.52-0.99-0.78-1.77-0.78c-0.8,0-1.43,0.28-1.9,0.85c-0.46,0.56-0.69,1.34-0.69,2.32
		c0,1.04,0.24,1.82,0.71,2.36s1.16,0.81,2.05,0.81c0.47,0,0.91-0.08,1.32-0.23c0.41-0.15,0.81-0.39,1.21-0.72L28.88,52.51z"/>
	<path class="st0" d="M30.37,46.57v-0.75h4.39v0.75H30.37z M34.94,43.14c-0.28-0.08-0.55-0.12-0.81-0.12s-0.48,0.04-0.68,0.13
		s-0.36,0.25-0.47,0.48c-0.12,0.23-0.18,0.56-0.18,0.99v8.83h-0.93v-9c0-0.78,0.19-1.36,0.57-1.72c0.38-0.37,0.89-0.55,1.53-0.55
		c0.16,0,0.32,0.01,0.48,0.03s0.32,0.05,0.48,0.09v0.84H34.94z"/>
	<path class="st0" d="M36.95,53.46v-5.51c0-0.35-0.01-0.7-0.02-1.06c-0.02-0.36-0.05-0.71-0.1-1.06h0.88l0.15,1.83l-0.15-0.03
		c0.15-0.65,0.46-1.14,0.94-1.48c0.47-0.34,1-0.5,1.59-0.5c0.13,0,0.25,0.01,0.36,0.02c0.11,0.01,0.21,0.03,0.31,0.05l-0.03,0.85
		c-0.19-0.05-0.43-0.08-0.72-0.08c-0.56,0-1.01,0.13-1.34,0.38c-0.34,0.25-0.58,0.57-0.72,0.95c-0.15,0.38-0.22,0.77-0.22,1.17v4.48
		L36.95,53.46L36.95,53.46z"/>
	<path class="st0" d="M48.75,52.51c-0.33,0.33-0.75,0.58-1.26,0.77c-0.52,0.19-1.05,0.28-1.6,0.28c-0.77,0-1.44-0.16-2-0.47
		s-0.99-0.77-1.29-1.36s-0.46-1.29-0.46-2.12c0-0.79,0.15-1.49,0.45-2.09s0.72-1.06,1.26-1.39c0.54-0.33,1.16-0.5,1.86-0.5
		c0.66,0,1.23,0.14,1.71,0.43s0.84,0.71,1.1,1.26c0.25,0.55,0.38,1.21,0.38,2v0.2h-5.93l-0.02-0.7h5.44l-0.35,0.59
		c0.03-0.98-0.16-1.72-0.56-2.24s-0.99-0.78-1.77-0.78c-0.8,0-1.43,0.28-1.9,0.85c-0.46,0.56-0.69,1.34-0.69,2.32
		c0,1.04,0.24,1.82,0.71,2.36c0.47,0.54,1.16,0.81,2.05,0.81c0.47,0,0.91-0.08,1.32-0.23c0.41-0.15,0.82-0.39,1.21-0.72L48.75,52.51
		z"/>
	<path class="st0" d="M53.86,53.56c-1.24,0-2.22-0.34-2.94-1.02l0.35-0.72c0.41,0.33,0.81,0.56,1.22,0.71
		c0.41,0.15,0.88,0.22,1.42,0.22c0.64,0,1.12-0.11,1.45-0.33s0.49-0.54,0.49-0.95c0-0.33-0.11-0.6-0.33-0.81
		c-0.22-0.2-0.58-0.37-1.07-0.49l-1.29-0.3c-0.61-0.13-1.09-0.38-1.44-0.75s-0.53-0.79-0.53-1.28c0-0.45,0.12-0.84,0.35-1.17
		c0.23-0.33,0.56-0.59,0.98-0.77s0.92-0.27,1.49-0.27c0.53,0,1.03,0.09,1.49,0.26c0.47,0.17,0.85,0.42,1.16,0.75l-0.35,0.72
		c-0.36-0.3-0.72-0.53-1.09-0.69c-0.37-0.15-0.77-0.23-1.21-0.23c-0.59,0-1.05,0.12-1.37,0.35c-0.33,0.23-0.49,0.55-0.49,0.96
		c0,0.36,0.1,0.64,0.3,0.85s0.53,0.37,0.97,0.48l1.29,0.32c0.7,0.15,1.22,0.4,1.55,0.74s0.5,0.77,0.5,1.29
		c0,0.64-0.26,1.16-0.78,1.55C55.46,53.37,54.76,53.56,53.86,53.56z"/>
	<path class="st0" d="M59.41,53.46V42.25h0.93v5.12l-0.18,0.21c0.19-0.64,0.54-1.12,1.05-1.45c0.51-0.32,1.09-0.49,1.75-0.49
		c1.84,0,2.76,0.99,2.76,2.96v4.86h-0.93v-4.8c0-0.76-0.15-1.32-0.46-1.68c-0.3-0.35-0.79-0.53-1.46-0.53
		c-0.76,0-1.37,0.23-1.84,0.7c-0.46,0.47-0.69,1.1-0.69,1.89v4.42H59.41z"/>
	<path class="st0" d="M68.56,42.67h1.23v1.19h-1.23V42.67z M68.7,53.46v-7.63h0.93v7.63H68.7z"/>
	<path class="st0" d="M72.68,53.46v-5.51c0-0.35-0.01-0.7-0.02-1.06c-0.01-0.36-0.05-0.71-0.1-1.06h0.88l0.14,1.6l-0.15,0.15
		c0.19-0.64,0.54-1.12,1.05-1.45c0.51-0.32,1.09-0.49,1.75-0.49c1.84,0,2.76,0.99,2.76,2.96v4.86h-0.93v-4.8
		c0-0.76-0.15-1.32-0.46-1.68c-0.3-0.35-0.79-0.53-1.46-0.53c-0.76,0-1.37,0.23-1.84,0.7c-0.46,0.47-0.69,1.1-0.69,1.89v4.42
		C73.61,53.46,72.68,53.46,72.68,53.46z"/>
	<path class="st0" d="M85.26,56.85c-1.14,0-2.13-0.27-2.97-0.82l0.18-0.81c0.48,0.28,0.92,0.49,1.34,0.62s0.9,0.19,1.46,0.19
		c0.76,0,1.34-0.21,1.73-0.62c0.39-0.42,0.59-1.03,0.59-1.83v-2.16l0.17-0.29c-0.12,0.45-0.31,0.83-0.57,1.13
		c-0.26,0.31-0.58,0.55-0.96,0.72s-0.82,0.25-1.32,0.25c-0.68,0-1.28-0.16-1.79-0.48s-0.91-0.76-1.2-1.33s-0.43-1.23-0.43-1.98
		c0-0.76,0.14-1.43,0.43-2s0.69-1.01,1.2-1.33c0.51-0.31,1.11-0.47,1.79-0.47c0.74,0,1.36,0.18,1.85,0.54s0.83,0.87,1,1.53
		l-0.18-0.24v-1.65h0.93v7.66c0,1.12-0.27,1.96-0.82,2.52C87.13,56.57,86.32,56.85,85.26,56.85z M85.03,52.39
		c0.79,0,1.41-0.26,1.87-0.79c0.45-0.53,0.68-1.25,0.68-2.16c0-0.92-0.23-1.65-0.68-2.18s-1.07-0.79-1.87-0.79s-1.43,0.26-1.9,0.78
		c-0.46,0.52-0.69,1.25-0.69,2.19c0,0.93,0.23,1.66,0.69,2.18S84.23,52.39,85.03,52.39z"/>
	<path class="st0" d="M94.78,46.57v-0.75h4.69v0.75H94.78z M99.42,52.59v0.84c-0.15,0.04-0.31,0.07-0.46,0.09
		c-0.16,0.02-0.33,0.03-0.53,0.03c-0.64,0-1.16-0.18-1.55-0.55c-0.4-0.37-0.59-0.93-0.59-1.71V43.8l0.93-0.35v7.66
		c0,0.43,0.06,0.76,0.17,0.99c0.12,0.23,0.28,0.4,0.49,0.49s0.44,0.14,0.71,0.14c0.16,0,0.3-0.01,0.43-0.03
		C99.13,52.67,99.27,52.64,99.42,52.59z"/>
	<path class="st0" d="M104.47,53.56c-0.68,0-1.28-0.16-1.79-0.49c-0.51-0.32-0.91-0.78-1.19-1.36s-0.42-1.28-0.42-2.08
		s0.14-1.5,0.43-2.1c0.28-0.6,0.68-1.06,1.2-1.39s1.1-0.5,1.77-0.5c0.72,0,1.33,0.18,1.82,0.53c0.49,0.36,0.83,0.87,1,1.54
		l-0.18,0.12v-2.01h0.93v7.63h-0.93v-2.09l0.18,0.11c-0.17,0.67-0.51,1.19-1,1.55C105.79,53.38,105.19,53.56,104.47,53.56z
		 M104.59,52.74c0.81,0,1.43-0.27,1.87-0.82c0.43-0.55,0.65-1.32,0.65-2.32c0-1.02-0.22-1.79-0.65-2.33
		c-0.44-0.54-1.06-0.81-1.86-0.81s-1.43,0.28-1.88,0.83c-0.45,0.55-0.68,1.33-0.68,2.34c0,1,0.23,1.76,0.68,2.3
		C103.16,52.47,103.79,52.74,104.59,52.74z"/>
	<path class="st0" d="M111.06,53.46V42.25h0.93v11.21H111.06z M116.18,53.46l-4.39-3.9l4.01-3.73h1.23l-4.4,4.02l0.03-0.69l4.78,4.3
		H116.18z"/>
	<path class="st0" d="M125.12,52.51c-0.33,0.33-0.75,0.58-1.26,0.77c-0.52,0.19-1.05,0.28-1.6,0.28c-0.77,0-1.44-0.16-2-0.47
		s-0.99-0.77-1.29-1.36s-0.46-1.29-0.46-2.12c0-0.79,0.15-1.49,0.45-2.09c0.3-0.6,0.72-1.06,1.26-1.39c0.54-0.33,1.16-0.5,1.86-0.5
		c0.66,0,1.23,0.14,1.71,0.43c0.48,0.29,0.84,0.71,1.1,1.26c0.25,0.55,0.38,1.21,0.38,2v0.2h-5.93l-0.02-0.7h5.44l-0.35,0.59
		c0.03-0.98-0.16-1.72-0.56-2.24c-0.4-0.52-0.99-0.78-1.77-0.78c-0.8,0-1.43,0.28-1.9,0.85c-0.46,0.56-0.69,1.34-0.69,2.32
		c0,1.04,0.24,1.82,0.71,2.36s1.16,0.81,2.05,0.81c0.47,0,0.91-0.08,1.32-0.23c0.41-0.15,0.82-0.39,1.21-0.72L125.12,52.51z"/>
	<path class="st0" d="M135.17,53.56c-0.71,0-1.33-0.16-1.85-0.49c-0.52-0.32-0.93-0.78-1.23-1.38c-0.29-0.59-0.44-1.29-0.44-2.09
		s0.15-1.5,0.44-2.09c0.29-0.59,0.7-1.05,1.23-1.38c0.52-0.32,1.14-0.49,1.85-0.49c0.7,0,1.31,0.16,1.83,0.49s0.93,0.78,1.22,1.38
		c0.29,0.59,0.43,1.29,0.43,2.09s-0.14,1.5-0.43,2.09s-0.7,1.05-1.22,1.38C136.49,53.4,135.88,53.56,135.17,53.56z M135.16,52.74
		c0.81,0,1.44-0.27,1.88-0.81s0.66-1.31,0.66-2.33c0-1-0.22-1.77-0.67-2.32s-1.07-0.82-1.87-0.82c-0.79,0-1.41,0.27-1.87,0.82
		c-0.45,0.55-0.68,1.32-0.68,2.32c0,1.02,0.22,1.79,0.66,2.33C133.72,52.47,134.35,52.74,135.16,52.74z"/>
	<path class="st0" d="M141.21,53.46v-5.51c0-0.35-0.01-0.7-0.02-1.06c-0.01-0.36-0.05-0.71-0.1-1.06h0.88l0.14,1.6l-0.15,0.15
		c0.19-0.64,0.54-1.12,1.05-1.45c0.51-0.32,1.09-0.49,1.75-0.49c1.84,0,2.76,0.99,2.76,2.96v4.86h-0.93v-4.8
		c0-0.76-0.15-1.32-0.46-1.68c-0.3-0.35-0.79-0.53-1.46-0.53c-0.76,0-1.37,0.23-1.84,0.7c-0.46,0.47-0.69,1.1-0.69,1.89v4.42
		C142.14,53.46,141.21,53.46,141.21,53.46z"/>
	<path class="st0" d="M154.89,53.46v-5.51c0-0.35-0.01-0.7-0.02-1.06c-0.01-0.36-0.05-0.71-0.1-1.06h0.88l0.15,1.83l-0.15-0.03
		c0.15-0.65,0.46-1.14,0.94-1.48c0.47-0.34,1-0.5,1.59-0.5c0.13,0,0.25,0.01,0.36,0.02c0.11,0.01,0.21,0.03,0.31,0.05l-0.03,0.85
		c-0.19-0.05-0.43-0.08-0.72-0.08c-0.56,0-1.01,0.13-1.34,0.38s-0.58,0.57-0.72,0.95s-0.22,0.77-0.22,1.17v4.48L154.89,53.46
		L154.89,53.46z"/>
	<path class="st0" d="M166.67,52.51c-0.33,0.33-0.75,0.58-1.26,0.77c-0.52,0.19-1.05,0.28-1.6,0.28c-0.77,0-1.44-0.16-2-0.47
		s-0.99-0.77-1.29-1.36c-0.3-0.59-0.46-1.29-0.46-2.12c0-0.79,0.15-1.49,0.45-2.09s0.72-1.06,1.26-1.39c0.54-0.33,1.16-0.5,1.86-0.5
		c0.66,0,1.23,0.14,1.71,0.43c0.48,0.29,0.84,0.71,1.1,1.26c0.25,0.55,0.38,1.21,0.38,2v0.2h-5.93l-0.02-0.7h5.44l-0.35,0.59
		c0.03-0.98-0.16-1.72-0.56-2.24s-0.99-0.78-1.77-0.78c-0.8,0-1.43,0.28-1.9,0.85c-0.46,0.56-0.69,1.34-0.69,2.32
		c0,1.04,0.24,1.82,0.71,2.36s1.16,0.81,2.05,0.81c0.47,0,0.91-0.08,1.32-0.23c0.41-0.15,0.82-0.39,1.21-0.72L166.67,52.51z"/>
	<path class="st0" d="M171.79,53.56c-1.24,0-2.22-0.34-2.94-1.02l0.35-0.72c0.41,0.33,0.81,0.56,1.22,0.71
		c0.41,0.15,0.88,0.22,1.42,0.22c0.64,0,1.12-0.11,1.45-0.33s0.49-0.54,0.49-0.95c0-0.33-0.11-0.6-0.33-0.81
		c-0.22-0.2-0.58-0.37-1.07-0.49l-1.29-0.3c-0.61-0.13-1.09-0.38-1.44-0.75s-0.53-0.79-0.53-1.28c0-0.45,0.12-0.84,0.35-1.17
		c0.23-0.33,0.56-0.59,0.98-0.77s0.92-0.27,1.49-0.27c0.53,0,1.03,0.09,1.49,0.26c0.47,0.17,0.85,0.42,1.16,0.75l-0.35,0.72
		c-0.36-0.3-0.72-0.53-1.09-0.69c-0.37-0.15-0.77-0.23-1.21-0.23c-0.59,0-1.05,0.12-1.37,0.35c-0.33,0.23-0.49,0.55-0.49,0.96
		c0,0.36,0.1,0.64,0.3,0.85s0.53,0.37,0.97,0.48l1.29,0.32c0.7,0.15,1.22,0.4,1.55,0.74s0.5,0.77,0.5,1.29
		c0,0.64-0.26,1.16-0.78,1.55C173.39,53.37,172.69,53.56,171.79,53.56z"/>
	<path class="st0" d="M180.02,53.56c-0.9,0-1.58-0.25-2.04-0.75s-0.69-1.23-0.69-2.21v-4.78h0.93v4.74c0,0.75,0.15,1.3,0.46,1.65
		c0.3,0.35,0.77,0.53,1.4,0.53c0.75,0,1.35-0.24,1.8-0.71c0.45-0.47,0.67-1.1,0.67-1.88v-4.33h0.93v7.63h-0.9v-1.69l0.17-0.14
		c-0.2,0.64-0.55,1.12-1.04,1.45C181.21,53.4,180.65,53.56,180.02,53.56z"/>
	<path class="st0" d="M186.51,53.46v-5.51c0-0.35-0.01-0.7-0.02-1.06c-0.01-0.36-0.05-0.71-0.1-1.06h0.88l0.14,1.6l-0.15,0.15
		c0.17-0.63,0.49-1.11,0.94-1.44s1-0.5,1.62-0.5c0.75,0,1.33,0.18,1.74,0.55s0.67,0.92,0.78,1.68l-0.37-0.14
		c0.13-0.64,0.45-1.15,0.95-1.52c0.5-0.38,1.1-0.56,1.81-0.56c0.83,0,1.46,0.24,1.89,0.73c0.43,0.49,0.64,1.23,0.64,2.22v4.86h-0.93
		v-4.8c0-0.76-0.14-1.32-0.41-1.68c-0.27-0.35-0.71-0.53-1.31-0.53c-0.69,0-1.24,0.23-1.65,0.7c-0.41,0.47-0.61,1.1-0.61,1.9v4.4
		h-0.93v-4.8c0-0.76-0.14-1.32-0.42-1.68c-0.28-0.35-0.72-0.53-1.32-0.53c-0.7,0-1.25,0.23-1.65,0.7s-0.6,1.1-0.6,1.9v4.4h-0.92
		V53.46z"/>
	<path class="st0" d="M206.37,52.51c-0.33,0.33-0.75,0.58-1.26,0.77c-0.52,0.19-1.05,0.28-1.6,0.28c-0.77,0-1.44-0.16-2-0.47
		s-0.99-0.77-1.29-1.36c-0.3-0.59-0.46-1.29-0.46-2.12c0-0.79,0.15-1.49,0.45-2.09s0.72-1.06,1.26-1.39c0.54-0.33,1.16-0.5,1.86-0.5
		c0.66,0,1.23,0.14,1.71,0.43c0.48,0.29,0.84,0.71,1.1,1.26c0.25,0.55,0.38,1.21,0.38,2v0.2h-5.93l-0.02-0.7h5.44l-0.35,0.59
		c0.03-0.98-0.16-1.72-0.56-2.24s-0.99-0.78-1.77-0.78c-0.8,0-1.43,0.28-1.9,0.85c-0.46,0.56-0.69,1.34-0.69,2.32
		c0,1.04,0.24,1.82,0.71,2.36s1.16,0.81,2.05,0.81c0.47,0,0.91-0.08,1.32-0.23c0.41-0.15,0.82-0.39,1.21-0.72L206.37,52.51z"/>
	<path class="st0" d="M211.49,53.56c-1.24,0-2.22-0.34-2.94-1.02l0.35-0.72c0.41,0.33,0.81,0.56,1.22,0.71
		c0.41,0.15,0.88,0.22,1.42,0.22c0.64,0,1.12-0.11,1.45-0.33s0.49-0.54,0.49-0.95c0-0.33-0.11-0.6-0.33-0.81
		c-0.22-0.2-0.58-0.37-1.07-0.49l-1.29-0.3c-0.61-0.13-1.09-0.38-1.44-0.75s-0.53-0.79-0.53-1.28c0-0.45,0.12-0.84,0.35-1.17
		c0.23-0.33,0.56-0.59,0.98-0.77s0.92-0.27,1.49-0.27c0.53,0,1.03,0.09,1.49,0.26c0.47,0.17,0.85,0.42,1.16,0.75l-0.35,0.72
		c-0.36-0.3-0.72-0.53-1.09-0.69c-0.37-0.15-0.77-0.23-1.21-0.23c-0.59,0-1.05,0.12-1.37,0.35c-0.33,0.23-0.49,0.55-0.49,0.96
		c0,0.36,0.1,0.64,0.3,0.85s0.53,0.37,0.97,0.48l1.29,0.32c0.7,0.15,1.22,0.4,1.55,0.74s0.5,0.77,0.5,1.29
		c0,0.64-0.26,1.16-0.78,1.55C213.09,53.37,212.38,53.56,211.49,53.56z"/>
</g>
</svg>
