<?xml version="1.0" encoding="utf-8"?>
<!-- Generator: Adobe Illustrator 24.1.0, SVG Export Plug-In . SVG Version: 6.00 Build 0)  -->
<svg version="1.1" id="Layer_1" xmlns="http://www.w3.org/2000/svg" xmlns:xlink="http://www.w3.org/1999/xlink" x="0px" y="0px"
	 viewBox="0 0 30 30" style="enable-background:new 0 0 30 30;" xml:space="preserve">
<style type="text/css">
	.st0{fill:#FFFFFF;}
</style>
<path id="stats" class="st0" d="M7.05,22.77c-0.48-0.36-0.6-1.2-0.24-1.68l2.52-3.24c-0.24-0.48-0.36-0.96-0.36-1.44
	c0-1.68,1.32-3,3-3c0.84,0,1.56,0.36,2.16,0.96l4.43-1.68c0.12-1.56,1.44-2.88,3-2.88h0.12l2.4-4.67c-0.48-0.48-0.72-1.2-0.72-1.92
	c0-1.68,1.32-3,3-3s3,1.32,3,3s-1.32,3-3,3h-0.12l-2.4,4.67c0.48,0.48,0.72,1.2,0.72,1.92c0,1.68-1.32,3-3,3
	c-0.84,0-1.56-0.36-2.16-0.96l-4.43,1.68c-0.12,1.56-1.44,2.88-3,2.88c-0.24,0-0.48,0-0.72-0.12l-2.52,3.24
	c-0.24,0.36-0.6,0.48-0.96,0.48C7.53,23.01,7.29,22.89,7.05,22.77z M28.74,24.21h-1.2c-0.36,0-0.6,0.24-0.6,0.6V26
	c0,0.36-0.24,0.6-0.6,0.6h-1.2c-0.36,0-0.6-0.24-0.6-0.6v-1.2c0-0.36-0.24-0.6-0.6-0.6h-1.2c-0.36,0-0.6,0.24-0.6,0.6V26
	c0,0.36-0.24,0.6-0.6,0.6h-1.2c-0.36,0-0.6-0.24-0.6-0.6v-1.2c0-0.36-0.24-0.6-0.6-0.6h-1.2c-0.36,0-0.6,0.24-0.6,0.6V26
	c0,0.36-0.24,0.6-0.6,0.6h-1.2c-0.36,0-0.6-0.24-0.6-0.6v-1.2c0-0.36-0.24-0.6-0.6-0.6h-1.2c-0.36,0-0.6,0.24-0.6,0.6V26
	c0,0.36-0.24,0.6-0.6,0.6h-1.2c-0.36,0-0.6-0.24-0.6-0.6v-1.2c0-0.36-0.24-0.6-0.6-0.6h-1.2c-0.36,0-0.6,0.24-0.6,0.6V26
	c0,0.36-0.24,0.6-0.6,0.6h-1.2c-0.36,0-0.6-0.24-0.6-0.6v-1.2c0-0.36-0.24-0.6-0.6-0.6h-1.2c-0.36,0-0.6-0.24-0.6-0.6v-1.2
	c0-0.36,0.24-0.6,0.6-0.6h1.2c0.36,0,0.6-0.24,0.6-0.6v-1.2c0-0.36-0.24-0.6-0.6-0.6h-1.2c-0.36,0-0.6-0.24-0.6-0.6v-1.2
	c0-0.36,0.24-0.6,0.6-0.6h1.2c0.36,0,0.6-0.24,0.6-0.6v-1.2c0-0.36-0.24-0.6-0.6-0.6h-1.2c-0.36,0-0.6-0.24-0.6-0.6v-1.2
	c0-0.36,0.24-0.6,0.6-0.6h1.2c0.36,0,0.6-0.24,0.6-0.6v-1.2c0-0.36-0.24-0.6-0.6-0.6h-1.2c-0.36,0-0.6-0.24-0.6-0.6v-1.2
	c0-0.36,0.24-0.6,0.6-0.6h1.2c0.36,0,0.6-0.24,0.6-0.6v-1.2c0-0.36-0.24-0.6-0.6-0.6h-1.2c-0.36,0-0.6-0.24-0.6-0.6v-1.2
	c0-0.36,0.24-0.6,0.6-0.6h1.2c0.36,0,0.6-0.24,0.6-0.6v-1.2c0-0.36-0.24-0.6-0.6-0.6h-3c-0.72,0-1.2,0.48-1.2,1.2V27.8
	c0,0.72,0.48,1.2,1.2,1.2h26.37c0.72,0,1.2-0.48,1.2-1.2v-3C29.34,24.45,29.1,24.21,28.74,24.21z"/>
</svg>
