<?xml version="1.0" encoding="utf-8"?>
<!-- Generator: Adobe Illustrator 24.1.0, SVG Export Plug-In . SVG Version: 6.00 Build 0)  -->
<svg version="1.1" id="Layer_1" xmlns="http://www.w3.org/2000/svg" xmlns:xlink="http://www.w3.org/1999/xlink" x="0px" y="0px"
	 viewBox="0 0 32 32" style="enable-background:new 0 0 32 32;" xml:space="preserve">
<style type="text/css">
	.st0{fill:none;stroke:#FFFFFF;stroke-width:2;stroke-linecap:square;stroke-miterlimit:10;}
</style>
<g>
	<path class="st0" d="M14.83,12.17l-0.59-0.59c-0.78-0.78-0.78-2.05,0-2.83c0,0,0,0,0,0l6.17-6.17c0.78-0.78,2.05-0.78,2.83,0
		c0,0,0,0,0,0l6.17,6.17c0.78,0.78,0.78,2.05,0,2.83c0,0,0,0,0,0l-6.17,6.17c-0.78,0.78-2.05,0.78-2.83,0c0,0,0,0,0,0l-0.59-0.58"/>
	<path class="st0" d="M17.17,19.83l0.58,0.59c0.78,0.78,0.78,2.05,0,2.83c0,0,0,0,0,0l-6.17,6.17c-0.78,0.78-2.05,0.78-2.83,0
		c0,0,0,0,0,0l-6.17-6.17c-0.78-0.78-0.78-2.05,0-2.83c0,0,0,0,0,0l6.17-6.17c0.78-0.78,2.05-0.78,2.83,0c0,0,0,0,0,0l0.59,0.59"/>
	<line class="st0" x1="11" y1="21" x2="21" y2="11"/>
</g>
</svg>
